<svg xmlns="http://www.w3.org/2000/svg" width="512" height="512" viewBox="0 0 512 512" fill="none">
  <defs>
    <linearGradient id="grad1" x1="0%" y1="0%" x2="100%" y2="100%">
      <stop offset="0%" stop-color="#a855f7" />
      <stop offset="100%" stop-color="#6366f1" />
    </linearGradient>
    <linearGradient id="grad2" x1="0%" y1="100%" x2="100%" y2="0%">
      <stop offset="0%" stop-color="#ec4899" />
      <stop offset="100%" stop-color="#8b5cf6" />
    </linearGradient>
  </defs>
  <rect width="512" height="512" rx="128" fill="#0b0f19" />
  <rect width="480" height="480" x="16" y="16" rx="112" fill="none" stroke="url(#grad1)" stroke-width="8" stroke-opacity="0.3" />
  
  <g transform="translate(128, 128) scale(1.6)">
    <!-- Glass body -->
    <path d="M20 20 H140 C140 20 140 70 100 80 C140 90 140 140 140 140 H20 C20 140 20 90 60 80 C20 70 20 20 20 20 Z" fill="none" stroke="url(#grad2)" stroke-width="12" stroke-linejoin="round" stroke-linecap="round" />
    
    <!-- Top Sand -->
    <path d="M36 36 H124 C116 64 100 72 80 72 C60 72 44 64 36 36 Z" fill="url(#grad1)" opacity="0.85" />
    
    <!-- Bottom Sand Accumulation -->
    <path d="M44 124 H116 C104 106 96 102 80 102 C64 102 56 106 44 124 Z" fill="url(#grad1)" opacity="0.85" />
    
    <!-- Falling sand stream -->
    <line x1="80" y1="72" x2="80" y2="102" stroke="url(#grad1)" stroke-width="6" stroke-dasharray="8 6" />
    
    <!-- Decorative sparkle stars -->
    <path d="M125 45 L128 52 L135 55 L128 58 L125 65 L122 58 L115 55 L122 52 Z" fill="#38bdf8" />
  </g>
</svg>